
<svg viewBox="136.7905 272.6959 284.6138 90" xmlns="http://www.w3.org/2000/svg">
  <defs>
    <linearGradient gradientUnits="userSpaceOnUse" x1="19.45" y1="1.36" x2="19.45" y2="12.99" id="gradient-0">
      <stop offset="0" style="stop-color: rgb(24.314% 50.588% 88.627%)"/>
      <stop offset="1" style="stop-color: rgb(0% 30.171% 61.795%)"/>
    </linearGradient>
    <linearGradient gradientUnits="userSpaceOnUse" x1="50" y1="12" x2="50" y2="88" id="gradient-1">
      <stop offset="0" style="stop-color: rgb(24.314% 50.588% 88.627%)"/>
      <stop offset="1" style="stop-color: rgb(0% 30.171% 61.795%)"/>
    </linearGradient>
  </defs>
  <g data-v-423bf9ae="" id="756ec38b-71eb-4104-a292-c49d40d6b5c5" fill="white" transform="matrix(5.15907096862793, 0, 0, 5.15907096862793, 221.49029541015622, 280.6795959472656)">
    <path d="M0.15 1.36L7.14 1.36L7.14 2.60L4.33 2.60L4.33 10.50L2.93 10.50L2.93 2.60L0.15 2.60L0.15 1.36ZM10.11 3.19L10.11 3.19Q10.88 3.23 11.48 3.51L11.48 3.51Q11.73 3.64 11.98 3.82Q12.24 4.00 12.43 4.27Q12.63 4.54 12.75 4.89Q12.87 5.25 12.87 5.73L12.87 5.73L12.87 10.50L11.63 10.50L11.47 9.63Q11.47 9.63 11.33 9.80Q11.19 9.97 10.92 10.16Q10.65 10.35 10.27 10.51Q9.88 10.67 9.41 10.67L9.41 10.67Q8.25 10.67 7.53 10.14Q6.82 9.62 6.82 8.46L6.82 8.46Q6.82 7.78 7.14 7.34Q7.46 6.90 7.93 6.64Q8.40 6.38 8.93 6.29Q9.45 6.19 9.86 6.19L9.86 6.19L11.55 6.19L11.55 5.71Q11.49 5.07 11.21 4.75Q10.92 4.42 10.51 4.32Q10.09 4.21 9.61 4.29Q9.13 4.37 8.71 4.50Q8.29 4.63 7.98 4.78Q7.67 4.93 7.59 4.98L7.59 4.98L7.59 3.86Q7.98 3.68 8.40 3.53L8.40 3.53Q8.76 3.40 9.21 3.30Q9.66 3.19 10.11 3.19ZM9.52 9.60L9.52 9.60Q10.36 9.60 10.89 9.21Q11.42 8.81 11.55 8.16L11.55 8.16L11.55 7.14L10.81 7.14Q10.54 7.14 10.10 7.16Q9.66 7.18 9.24 7.29Q8.82 7.41 8.51 7.67Q8.20 7.92 8.20 8.40L8.20 8.40Q8.20 8.69 8.33 8.92Q8.46 9.14 8.64 9.30Q8.83 9.45 9.07 9.53Q9.31 9.60 9.52 9.60ZM19.28 3.91L18.84 4.89Q18.02 4.26 17.11 4.26L17.11 4.26Q16.60 4.26 16.30 4.46Q16.00 4.66 16.00 5.15L16.00 5.15Q16.00 5.40 16.12 5.58Q16.24 5.75 16.44 5.88Q16.63 6.01 16.88 6.10Q17.14 6.20 17.42 6.30L17.42 6.30Q17.78 6.43 18.16 6.58Q18.54 6.73 18.84 6.98Q19.14 7.22 19.33 7.59Q19.52 7.97 19.52 8.54L19.52 8.54Q19.52 9.09 19.31 9.49Q19.11 9.90 18.77 10.16Q18.42 10.42 17.98 10.54Q17.54 10.67 17.08 10.67L17.08 10.67Q16.38 10.67 15.71 10.39Q15.04 10.11 14.56 9.58L14.56 9.58L14.98 8.65Q15.43 9.10 16.00 9.35Q16.56 9.60 17.11 9.60L17.11 9.60Q17.64 9.60 17.98 9.39Q18.33 9.17 18.34 8.67L18.34 8.67Q18.34 8.40 18.22 8.20Q18.10 8.01 17.91 7.86Q17.71 7.71 17.44 7.61Q17.18 7.50 16.90 7.39L16.90 7.39Q16.53 7.27 16.17 7.11Q15.81 6.96 15.51 6.72Q15.22 6.48 15.04 6.12Q14.85 5.75 14.85 5.22L14.85 5.22Q14.85 4.68 15.04 4.29Q15.23 3.91 15.55 3.66Q15.88 3.42 16.30 3.30Q16.72 3.19 17.18 3.19L17.18 3.19Q17.75 3.19 18.29 3.38Q18.83 3.57 19.28 3.91L19.28 3.91ZM27.22 3.36L24.71 6.52L27.31 10.50L25.69 10.50L23.72 7.21L22.64 7.21L22.64 10.50L21.32 10.50L21.32 1.62L22.64 1.62L22.64 5.81L23.72 5.81L25.70 3.36L27.22 3.36ZM31.19 9.52L31.19 10.50Q30.97 10.58 30.69 10.63Q30.41 10.67 30.17 10.67L30.17 10.67Q29.46 10.67 29.08 10.25Q28.70 9.83 28.70 9.03L28.70 9.03L28.70 1.62L30.02 1.62L30.02 9.00Q30.02 9.30 30.12 9.44Q30.23 9.59 30.48 9.59L30.48 9.59Q30.62 9.59 30.85 9.57Q31.08 9.55 31.19 9.52L31.19 9.52ZM37.24 3.36L38.75 3.36L36.08 10.12Q35.77 10.93 35.28 11.56L35.28 11.56Q35.07 11.83 34.79 12.09Q34.51 12.35 34.16 12.54Q33.81 12.74 33.39 12.87Q32.97 12.99 32.47 12.99L32.47 12.99L32.47 11.90Q33.21 11.90 33.65 11.62Q34.09 11.34 34.33 10.99L34.33 10.99Q34.59 10.60 34.71 10.08L34.71 10.08L31.99 3.36L33.50 3.36L35.41 9.18L37.24 3.36Z" style="fill: url('#gradient-0'); fill-rule: nonzero;"/>
  </g>
  <g data-v-423bf9ae="" id="0f7c5988-366e-4dc5-bd2f-aa58942b5244" transform="matrix(1.184211015701294, 0, 0, 1.184211015701294, 110.73783874511716, 258.48541259765625)" stroke="none" fill="white">
    <path d="M34 12l2 12h28l2-12H34zm-9 4c-1.662 0-3 1.338-3 3v66c0 1.662 1.338 3 3 3h50c1.662 0 3-1.338 3-3V19c0-1.662-1.338-3-3-3h-7.344L66 26H34l-1.656-10H25z" overflow="visible" color="#000" style="fill: url('#gradient-1'); fill-rule: nonzero;"/>
  </g>
</svg>